<svg width="350" height="119" viewBox="0 0 350 119" fill="none" xmlns="http://www.w3.org/2000/svg">
<g clip-path="url(#clip0_117_4)">
<mask id="mask0_117_4" style="mask-type:luminance" maskUnits="userSpaceOnUse" x="0" y="0" width="349" height="119">
<path d="M348.14 0H0V118.644H348.14V0Z" fill="white"/>
</mask>
<g mask="url(#mask0_117_4)">
<path d="M86.523 92.6429C82.7433 96.4683 78.9864 100.306 75.1901 104.105C70.6092 108.687 65.9542 113.196 61.4265 117.83C60.3528 118.93 59.8343 118.901 58.7623 117.831C44.03 103.144 29.2467 88.5094 14.4761 73.8607C12.1027 71.508 9.78576 69.0942 7.33434 66.8257C6.28926 65.8587 6.46305 65.3758 7.43747 64.5275C18.0951 55.235 30.3073 48.9603 44.1908 46.3821C69.7135 41.6411 92.5439 47.6092 112.493 64.3543C113.732 65.393 113.79 65.9287 112.582 67.0665C103.75 75.3897 94.3995 82.9337 82.8791 87.2894C71.8859 91.447 60.8754 91.2664 49.929 87.1657C45.5053 85.5097 41.7494 82.8284 39.052 78.8565C34.9588 72.8317 35.5404 65.3708 40.5813 60.0908C45.0735 55.3863 50.8274 53.2472 57.1141 52.4042C61.7557 51.7825 66.3686 52.0275 70.8367 53.5998C73.4499 54.5193 75.7685 55.9092 77.5395 58.0941C80.8378 62.1659 80.4208 67.5361 76.3395 70.832C71.3677 74.8478 65.6455 76.02 59.4223 74.6313C57.3852 74.176 55.6414 73.1678 54.2426 71.5563C52.9286 70.0439 51.2065 69.8211 49.934 70.8753C48.5806 71.9974 48.5601 73.7747 49.9444 75.3873C52.4674 78.3244 55.8203 79.7653 59.5267 80.3944C67.0837 81.6778 74.2403 80.5427 80.5979 76.1149C89.0646 70.2183 89.2325 60.2857 81.0419 53.9872C75.7299 49.9038 69.4901 48.6666 62.9662 48.5503C54.0089 48.3908 45.6299 50.4042 38.3134 55.7594C26.4648 64.43 26.2882 78.8879 37.8507 87.95C43.7022 92.5382 50.505 94.7367 57.7711 95.7425C67.2742 97.0565 76.5231 96.0186 85.5326 92.7553C85.8423 92.6441 86.1326 92.4133 86.523 92.6429Z" fill="#003594"/>
<path d="M2.29488 61.5793C1.34497 61.1489 0.723277 60.3991 0.169968 59.6659C-0.365677 58.954 0.501611 58.599 0.886249 58.2166C17.3795 41.8346 33.8842 25.4614 50.3962 9.09696C53.2033 6.31386 56.1261 3.64135 58.8372 0.769955C60.0019 -0.463736 60.5519 -0.0631416 61.5224 0.907286C72.5616 11.9484 83.6335 22.957 94.7145 33.956C102.795 41.9752 110.906 49.9638 118.989 57.9808C119.597 58.5824 120.737 59.1062 119.482 60.2167C118.583 61.0134 118.073 61.9963 116.546 60.7963C104.297 51.1775 90.3923 45.1634 75.0576 42.6933C57.0151 39.7871 39.5228 41.9677 22.7263 49.2937C15.8216 52.3046 9.41724 56.1555 3.46816 60.7713C3.09719 61.0597 2.69433 61.3058 2.29488 61.5793Z" fill="#003594"/>
<path d="M163.027 45.5036C163.027 45.947 163.008 46.3163 162.969 46.6135C162.932 46.9122 162.875 47.1527 162.798 47.336C162.721 47.5196 162.626 47.6525 162.511 47.7361C162.397 47.8204 162.272 47.8628 162.133 47.8628H147.249C146.746 47.8628 146.323 47.7133 145.979 47.4158C145.635 47.1186 145.464 46.6342 145.464 45.9621V20.1322C145.464 19.4604 145.635 18.9761 145.979 18.6775C146.323 18.3806 146.747 18.2319 147.249 18.2319H162.042C162.179 18.2319 162.301 18.27 162.409 18.3469C162.516 18.4227 162.606 18.5566 162.683 18.747C162.759 18.9379 162.817 19.1818 162.855 19.4803C162.893 19.7772 162.912 20.1556 162.912 20.6138C162.912 21.0417 162.893 21.4041 162.855 21.701C162.817 21.999 162.759 22.2401 162.683 22.4236C162.606 22.6065 162.516 22.7398 162.409 22.8242C162.301 22.9073 162.179 22.9495 162.042 22.9495H151.463V30.1842H160.416C160.553 30.1842 160.679 30.2269 160.794 30.31C160.907 30.3945 161.003 30.5239 161.079 30.6997C161.155 30.8753 161.214 31.1117 161.252 31.4092C161.289 31.7079 161.309 32.0704 161.309 32.4972C161.309 32.9403 161.289 33.3072 161.252 33.5961C161.214 33.8862 161.155 34.1194 161.079 34.2944C161.003 34.4706 160.907 34.5963 160.794 34.6722C160.679 34.7491 160.553 34.7873 160.416 34.7873H151.463V43.1449H162.133C162.272 43.1449 162.397 43.1867 162.511 43.2704C162.626 43.3546 162.721 43.4887 162.798 43.672C162.875 43.8556 162.932 44.095 162.969 44.3936C163.008 44.6903 163.027 45.0613 163.027 45.5036Z" fill="#003594"/>
<path d="M187.506 47.0836C187.506 47.2364 187.461 47.3698 187.369 47.4843C187.278 47.5988 187.123 47.6952 186.91 47.7697C186.697 47.8468 186.402 47.9049 186.029 47.9426C185.654 47.9806 185.192 47.9995 184.643 47.9995C184.079 47.9995 183.609 47.9806 183.234 47.9426C182.861 47.9049 182.566 47.8468 182.351 47.7697C182.138 47.6952 181.986 47.5988 181.894 47.4843C181.803 47.3698 181.757 47.2358 181.757 47.0836V35.4289C181.757 34.4361 181.684 33.6578 181.539 33.0937C181.394 32.5283 181.185 32.0428 180.91 31.6388C180.636 31.2348 180.281 30.9216 179.846 30.7003C179.41 30.4788 178.903 30.3675 178.322 30.3675C177.589 30.3675 176.849 30.6354 176.102 31.1699C175.354 31.7044 174.574 32.483 173.766 33.5057V47.0842C173.766 47.2369 173.72 47.3704 173.629 47.4849C173.537 47.5994 173.381 47.6958 173.16 47.7703C172.939 47.8474 172.644 47.9055 172.278 47.9429C171.912 47.9811 171.446 48.0001 170.881 48.0001C170.317 48.0001 169.851 47.9811 169.485 47.9429C169.118 47.9055 168.825 47.8474 168.603 47.7703C168.382 47.6958 168.225 47.5994 168.134 47.4849C168.042 47.3704 167.996 47.2364 167.996 47.0842V26.6586C167.996 26.5059 168.034 26.3719 168.112 26.258C168.187 26.1429 168.324 26.0483 168.524 25.9713C168.721 25.8956 168.978 25.8386 169.291 25.7998C169.604 25.7611 169.997 25.7417 170.47 25.7417C170.958 25.7417 171.363 25.7611 171.683 25.7998C172.003 25.8386 172.252 25.895 172.427 25.9713C172.603 26.0483 172.728 26.1429 172.805 26.258C172.881 26.3719 172.919 26.5059 172.919 26.6586V29.0171C174.049 27.796 175.198 26.8796 176.365 26.2699C177.534 25.6596 178.751 25.3536 180.017 25.3536C181.407 25.3536 182.578 25.5827 183.533 26.0409C184.486 26.499 185.258 27.1213 185.845 27.9071C186.433 28.6923 186.857 29.6131 187.116 30.6662C187.376 31.7192 187.506 32.9872 187.506 34.467V47.0836Z" fill="#003594"/>
<path d="M211.572 28.078C211.572 28.8108 211.488 29.3528 211.321 29.7043C211.153 30.0558 210.946 30.2302 210.702 30.2302H208.298C208.634 30.5971 208.874 31.0133 209.02 31.4783C209.165 31.9437 209.237 32.4281 209.237 32.9317C209.237 34.1229 209.039 35.1803 208.642 36.1037C208.246 37.0273 207.677 37.8056 206.935 38.4392C206.194 39.0731 205.303 39.5539 204.258 39.881C203.211 40.2103 202.047 40.3746 200.765 40.3746C200.109 40.3746 199.482 40.2936 198.887 40.1334C198.292 39.9733 197.833 39.7864 197.514 39.5728C197.331 39.7722 197.166 40.008 197.021 40.2826C196.877 40.5573 196.804 40.8634 196.804 41.1986C196.804 41.6417 196.998 42.0042 197.387 42.2862C197.776 42.5683 198.323 42.7246 199.024 42.7558L203.994 42.9382C205.154 42.9845 206.188 43.1491 207.096 43.4311C208.005 43.7138 208.768 44.1098 209.386 44.6214C210.004 45.1325 210.478 45.7468 210.806 46.4649C211.133 47.183 211.298 47.9989 211.298 48.9146C211.298 49.9228 211.076 50.8725 210.634 51.7659C210.192 52.6584 209.527 53.434 208.642 54.0904C207.756 54.7456 206.646 55.2653 205.31 55.647C203.974 56.0279 202.413 56.2198 200.627 56.2198C198.886 56.2198 197.402 56.0813 196.172 55.8072C194.946 55.5325 193.937 55.1508 193.15 54.662C192.364 54.1735 191.792 53.59 191.433 52.9102C191.073 52.231 190.895 51.4862 190.895 50.6782C190.895 50.1746 190.96 49.6923 191.089 49.2343C191.219 48.7767 191.409 48.3374 191.662 47.918C191.913 47.4986 192.223 47.0978 192.59 46.7155C192.957 46.3344 193.377 45.9681 193.849 45.6163C193.193 45.266 192.684 44.7884 192.326 44.1848C191.968 43.5821 191.789 42.9228 191.789 42.2047C191.789 41.3033 191.995 40.4834 192.407 39.7425C192.82 39.0025 193.353 38.3345 194.01 37.7395C193.475 37.2056 193.048 36.5646 192.728 35.8163C192.407 35.0688 192.247 34.1378 192.247 33.0231C192.247 31.8322 192.456 30.7671 192.876 29.8286C193.296 28.89 193.881 28.0957 194.628 27.4472C195.376 26.7987 196.27 26.303 197.307 25.9582C198.344 25.6152 199.49 25.4443 200.743 25.4443C201.383 25.4443 201.997 25.4824 202.584 25.5588C203.172 25.6352 203.718 25.7411 204.222 25.879H210.701C210.961 25.879 211.171 26.0471 211.331 26.3822C211.492 26.7195 211.572 27.2843 211.572 28.078ZM205.527 49.2139C205.527 48.5266 205.253 47.9995 204.703 47.6329C204.153 47.2672 203.398 47.0688 202.435 47.0382L198.336 46.924C197.94 47.2135 197.622 47.4929 197.386 47.7596C197.151 48.0262 196.959 48.2822 196.813 48.5272C196.668 48.771 196.573 49.008 196.527 49.2364C196.482 49.4663 196.458 49.7021 196.458 49.9471C196.458 50.7103 196.845 51.2901 197.616 51.6873C198.387 52.0842 199.473 52.2823 200.879 52.2823C201.748 52.2823 202.482 52.1945 203.077 52.0189C203.672 51.8442 204.153 51.6105 204.519 51.3216C204.885 51.0309 205.145 50.7067 205.297 50.3484C205.45 49.988 205.527 49.6104 205.527 49.2139ZM204.176 32.9101C204.176 31.8111 203.871 30.9557 203.261 30.3453C202.65 29.7346 201.787 29.4297 200.673 29.4297C200.109 29.4297 199.613 29.5248 199.186 29.7153C198.758 29.906 198.403 30.1653 198.12 30.4936C197.837 30.8217 197.629 31.2043 197.491 31.6388C197.354 32.0736 197.285 32.5283 197.285 33.0014C197.285 34.0396 197.591 34.8603 198.201 35.463C198.811 36.066 199.659 36.3668 200.743 36.3668C201.322 36.3668 201.826 36.2757 202.253 36.0921C202.681 35.9091 203.035 35.6573 203.317 35.3367C203.601 35.0163 203.814 34.6458 203.959 34.2264C204.103 33.8061 204.176 33.3678 204.176 32.9101Z" fill="#003594"/>
<path d="M234.906 47.0836C234.906 47.2364 234.86 47.3698 234.769 47.4843C234.678 47.5988 234.524 47.6952 234.311 47.7697C234.097 47.8468 233.802 47.9049 233.429 47.9426C233.055 47.9806 232.592 47.9995 232.043 47.9995C231.479 47.9995 231.009 47.9806 230.634 47.9426C230.261 47.9049 229.966 47.8468 229.752 47.7697C229.538 47.6952 229.385 47.5988 229.294 47.4843C229.203 47.3698 229.157 47.2358 229.157 47.0836V35.4289C229.157 34.4361 229.085 33.6578 228.939 33.0937C228.794 32.5283 228.585 32.0428 228.31 31.6388C228.034 31.2348 227.68 30.9216 227.245 30.7003C226.81 30.4788 226.302 30.3675 225.722 30.3675C224.989 30.3675 224.249 30.6354 223.502 31.1699C222.753 31.7044 221.974 32.483 221.166 33.5057V47.0842C221.166 47.2369 221.12 47.3704 221.029 47.4849C220.937 47.5994 220.78 47.6958 220.559 47.7703C220.337 47.8474 220.044 47.9055 219.677 47.9429C219.311 47.9811 218.845 48.0001 218.281 48.0001C217.716 48.0001 217.249 47.9811 216.883 47.9429C216.517 47.9055 216.224 47.8474 216.002 47.7703C215.78 47.6958 215.625 47.5994 215.533 47.4849C215.442 47.3704 215.396 47.2364 215.396 47.0842V16.9719C215.396 16.8203 215.442 16.6819 215.533 16.56C215.625 16.4374 215.782 16.3343 216.002 16.2505C216.224 16.1668 216.517 16.1024 216.883 16.0562C217.251 16.0101 217.716 15.9873 218.281 15.9873C218.845 15.9873 219.311 16.0106 219.677 16.0562C220.044 16.1024 220.337 16.1668 220.559 16.2505C220.781 16.3337 220.937 16.4374 221.029 16.56C221.12 16.6819 221.166 16.8203 221.166 16.9719V28.2615C222.157 27.2842 223.169 26.5554 224.199 26.0745C225.229 25.5935 226.301 25.3531 227.416 25.3531C228.806 25.3531 229.977 25.5822 230.931 26.0403C231.885 26.4984 232.655 27.1247 233.245 27.9179C233.831 28.7117 234.254 29.6394 234.515 30.7003C234.775 31.7607 234.906 33.0474 234.906 34.5586L234.906 47.0836Z" fill="#003594"/>
<path d="M261.217 36.6655C261.217 38.4057 260.988 39.9931 260.53 41.4281C260.071 42.8628 259.377 44.0994 258.446 45.1384C257.515 46.176 256.347 46.9777 254.942 47.5419C253.538 48.1066 251.898 48.3893 250.02 48.3893C248.203 48.3893 246.622 48.1369 245.279 47.6329C243.937 47.1293 242.822 46.3969 241.937 45.435C241.051 44.4734 240.395 43.2914 239.968 41.8861C239.541 40.4817 239.326 38.8788 239.326 37.0775C239.326 35.3372 239.56 33.745 240.025 32.3032C240.491 30.8599 241.189 29.6234 242.12 28.5932C243.052 27.5623 244.216 26.7657 245.613 26.2004C247.008 25.6351 248.647 25.3531 250.525 25.3531C252.357 25.3531 253.943 25.6015 255.287 26.0967C256.631 26.5942 257.74 27.323 258.619 28.2849C259.497 29.2467 260.151 30.4304 260.578 31.8337C261.003 33.2378 261.217 34.8481 261.217 36.6655ZM255.286 36.8944C255.286 35.8866 255.205 34.9594 255.046 34.1114C254.885 33.2645 254.614 32.5278 254.233 31.9022C253.851 31.2764 253.343 30.7875 252.709 30.4367C252.076 30.0849 251.277 29.9096 250.316 29.9096C249.461 29.9096 248.713 30.0662 248.072 30.3791C247.432 30.6917 246.905 31.15 246.493 31.753C246.081 32.3557 245.771 33.0818 245.566 33.928C245.36 34.7752 245.257 35.7418 245.257 36.825C245.257 37.8317 245.34 38.7595 245.508 39.6064C245.676 40.4538 245.947 41.1917 246.32 41.8161C246.695 42.4425 247.203 42.9272 247.844 43.2698C248.485 43.6136 249.279 43.7856 250.226 43.7856C251.095 43.7856 251.852 43.6287 252.493 43.3161C253.135 43.0037 253.661 42.5484 254.073 41.9534C254.485 41.3587 254.79 40.6365 254.988 39.7894C255.186 38.9437 255.286 37.9783 255.286 36.8944Z" fill="#003594"/>
<path d="M285.146 47.0836C285.146 47.2364 285.108 47.3698 285.031 47.4843C284.955 47.5988 284.821 47.6952 284.63 47.7697C284.44 47.8468 284.188 47.9049 283.876 47.9426C283.563 47.9806 283.17 47.9995 282.697 47.9995C282.192 47.9995 281.784 47.9806 281.472 47.9426C281.158 47.9049 280.91 47.8468 280.726 47.7697C280.544 47.6952 280.414 47.5988 280.337 47.4843C280.26 47.3698 280.224 47.2358 280.224 47.0836V44.7253C279.094 45.9476 277.945 46.8626 276.777 47.4733C275.608 48.0838 274.398 48.3893 273.147 48.3893C271.742 48.3893 270.563 48.16 269.609 47.702C268.655 47.2444 267.885 46.6182 267.296 45.8245C266.709 45.0311 266.289 44.111 266.037 43.0651C265.786 42.019 265.659 40.7175 265.659 39.1608V26.6585C265.659 26.5058 265.701 26.3719 265.786 26.258C265.869 26.1429 266.021 26.0483 266.244 25.9713C266.465 25.8956 266.762 25.8386 267.136 25.7998C267.509 25.7616 267.972 25.7417 268.522 25.7417C269.086 25.7417 269.553 25.7611 269.919 25.7998C270.285 25.838 270.578 25.895 270.8 25.9713C271.023 26.0483 271.178 26.1429 271.27 26.258C271.361 26.3719 271.407 26.5058 271.407 26.6585V38.1995C271.407 39.2685 271.475 40.0857 271.613 40.6498C271.749 41.2143 271.959 41.6981 272.242 42.1032C272.525 42.5084 272.883 42.8213 273.318 43.042C273.755 43.263 274.26 43.3736 274.842 43.3736C275.574 43.3736 276.311 43.1072 277.052 42.5728C277.793 42.0383 278.583 41.2594 279.422 40.2367V26.6585C279.422 26.5058 279.463 26.3719 279.548 26.258C279.631 26.1429 279.784 26.0483 280.006 25.9713C280.227 25.8956 280.521 25.8386 280.888 25.7998C281.255 25.7616 281.719 25.7417 282.284 25.7417C282.85 25.7417 283.316 25.7611 283.681 25.7998C284.048 25.838 284.337 25.895 284.551 25.9713C284.765 26.0483 284.917 26.1429 285.009 26.258C285.1 26.3719 285.146 26.5058 285.146 26.6585L285.146 47.0836Z" fill="#003594"/>
<path d="M305.319 41.3131C305.319 42.4743 305.102 43.4967 304.666 44.3815C304.23 45.2678 303.616 46.0078 302.824 46.6028C302.029 47.1987 301.089 47.6451 300.006 47.9426C298.924 48.2398 297.746 48.3893 296.481 48.3893C295.717 48.3893 294.989 48.3323 294.294 48.2172C293.599 48.1031 292.976 47.9577 292.428 47.7824C291.878 47.6062 291.419 47.4274 291.054 47.2444C290.687 47.0611 290.422 46.8887 290.253 46.7292C290.084 46.5681 289.956 46.3166 289.863 45.9731C289.772 45.6302 289.726 45.123 289.726 44.4512C289.726 44.0078 289.741 43.6533 289.772 43.3861C289.803 43.1182 289.849 42.9047 289.909 42.7451C289.97 42.5837 290.046 42.4772 290.137 42.4242C290.229 42.3705 290.344 42.3438 290.481 42.3438C290.649 42.3438 290.897 42.4396 291.226 42.6294C291.554 42.8207 291.962 43.031 292.45 43.2591C292.939 43.4887 293.507 43.7022 294.156 43.9001C294.805 44.0988 295.541 44.1976 296.365 44.1976C296.886 44.1976 297.346 44.1439 297.752 44.0374C298.156 43.9303 298.508 43.7782 298.805 43.5797C299.102 43.3822 299.327 43.1295 299.481 42.8243C299.636 42.5188 299.71 42.1679 299.71 41.7701C299.71 41.3119 299.567 40.9186 299.286 40.5911C299.004 40.2633 298.63 39.9768 298.164 39.7333C297.699 39.4895 297.171 39.2599 296.585 39.0461C295.998 38.8325 295.395 38.5961 294.775 38.3357C294.157 38.0764 293.554 37.7789 292.967 37.4432C292.378 37.1083 291.851 36.6957 291.387 36.2066C290.921 35.7184 290.547 35.1296 290.265 34.4436C289.982 33.7563 289.841 32.9317 289.841 31.9701C289.841 30.994 290.031 30.0964 290.413 29.2798C290.796 28.4627 291.346 27.7658 292.062 27.1851C292.78 26.6044 293.655 26.1543 294.685 25.8334C295.717 25.5132 296.871 25.3525 298.156 25.3525C298.796 25.3525 299.419 25.3987 300.021 25.491C300.623 25.5822 301.169 25.6961 301.658 25.8334C302.145 25.9708 302.557 26.1201 302.892 26.2796C303.23 26.4409 303.471 26.5782 303.616 26.6922C303.761 26.8073 303.865 26.9207 303.925 27.0358C303.987 27.1503 304.031 27.2871 304.061 27.4478C304.094 27.6079 304.12 27.8068 304.141 28.0438C304.165 28.2803 304.177 28.5744 304.177 28.9254C304.177 29.3374 304.165 29.6729 304.141 29.9339C304.12 30.1931 304.082 30.3978 304.028 30.5511C303.975 30.7051 303.901 30.8068 303.812 30.8599C303.72 30.9148 303.613 30.9409 303.492 30.9409C303.352 30.9409 303.139 30.8599 302.848 30.7003C302.56 30.5393 302.195 30.3675 301.762 30.1848C301.326 30.0024 300.822 29.8298 300.253 29.6696C299.677 29.5089 299.025 29.4297 298.292 29.4297C297.773 29.4297 297.322 29.4827 296.942 29.5892C296.561 29.6969 296.248 29.8497 296.003 30.0475C295.758 30.2468 295.576 30.4788 295.454 30.7466C295.331 31.0133 295.27 31.2998 295.27 31.6041C295.27 32.0784 295.416 32.475 295.706 32.795C295.996 33.1153 296.379 33.3992 296.85 33.6424C297.325 33.8862 297.862 34.1161 298.467 34.3297C299.069 34.5432 299.68 34.7758 300.3 35.0273C300.917 35.2797 301.525 35.5736 302.13 35.9088C302.732 36.2455 303.272 36.6569 303.747 37.1457C304.218 37.6342 304.601 38.2176 304.889 38.8975C305.173 39.5773 305.319 40.382 305.319 41.3131Z" fill="#003594"/>
<path d="M328.517 36.2757C328.517 36.9784 328.359 37.4981 328.045 37.8323C327.733 38.1693 327.303 38.3363 326.752 38.3363H314.318C314.318 39.2056 314.422 39.9967 314.626 40.7056C314.834 41.4163 315.163 42.019 315.614 42.5149C316.062 43.0111 316.643 43.3896 317.352 43.6483C318.061 43.9087 318.915 44.038 319.906 44.038C320.914 44.038 321.798 43.9668 322.564 43.8209C323.326 43.6761 323.984 43.5154 324.545 43.3398C325.1 43.1639 325.562 43.0049 325.93 42.859C326.295 42.7142 326.592 42.6419 326.823 42.6419C326.959 42.6419 327.072 42.668 327.164 42.7222C327.256 42.7756 327.333 42.8703 327.395 43.0082C327.455 43.1455 327.496 43.3404 327.52 43.5919C327.544 43.8443 327.556 44.1617 327.556 44.5422C327.556 44.8783 327.55 45.1651 327.532 45.4009C327.517 45.6373 327.496 45.8402 327.464 46.0078C327.434 46.1754 327.386 46.3166 327.327 46.4308C327.265 46.5458 327.185 46.6565 327.087 46.7636C326.986 46.8706 326.716 47.016 326.271 47.1987C325.829 47.3811 325.266 47.5606 324.578 47.7361C323.892 47.9117 323.106 48.0645 322.219 48.195C321.333 48.3249 320.386 48.3893 319.381 48.3893C317.563 48.3893 315.973 48.16 314.606 47.702C313.241 47.2444 312.099 46.5503 311.183 45.6181C310.266 44.687 309.584 43.5115 309.133 42.0914C308.682 40.6721 308.457 39.0081 308.457 37.1003C308.457 35.2836 308.694 33.646 309.166 32.1875C309.64 30.7306 310.325 29.4941 311.227 28.4775C312.129 27.4632 313.223 26.6888 314.514 26.1543C315.804 25.6203 317.257 25.3525 318.877 25.3525C320.585 25.3525 322.044 25.6038 323.261 26.1081C324.474 26.6118 325.47 27.3105 326.247 28.2034C327.028 29.0969 327.6 30.154 327.965 31.3751C328.333 32.5969 328.514 33.9245 328.514 35.3595V36.2757H328.517ZM322.928 34.6266C322.973 33.0089 322.65 31.7388 321.956 30.8142C321.261 29.8906 320.188 29.4297 318.737 29.4297C318.005 29.4297 317.37 29.567 316.827 29.8417C316.284 30.1157 315.833 30.4862 315.478 30.9516C315.119 31.4178 314.843 31.9672 314.653 32.5995C314.46 33.234 314.353 33.9103 314.321 34.6266H322.928Z" fill="#003594"/>
<path d="M169.424 96.1756C169.424 96.525 169.363 96.8364 169.241 97.1108C169.12 97.3837 168.957 97.6114 168.751 97.7939C168.546 97.9763 168.303 98.11 168.022 98.1928C167.74 98.2759 167.455 98.318 167.167 98.318H164.614C164.082 98.318 163.623 98.2652 163.235 98.159C162.848 98.0519 162.49 97.8594 162.164 97.5773C161.837 97.2964 161.522 96.9168 161.218 96.4378C160.914 95.959 160.573 95.3397 160.192 94.5795L152.853 80.7901C152.427 79.97 151.994 79.0852 151.554 78.1345C151.113 77.1851 150.718 76.2626 150.368 75.3657H150.323C150.383 76.4599 150.429 77.5505 150.46 78.6367C150.49 79.722 150.505 80.8435 150.505 81.9976V97.4287C150.505 97.5812 150.463 97.7179 150.38 97.8395C150.297 97.962 150.152 98.0647 149.947 98.1471C149.742 98.2299 149.464 98.296 149.115 98.3414C148.765 98.3871 148.317 98.4093 147.77 98.4093C147.238 98.4093 146.797 98.3871 146.448 98.3414C146.098 98.296 145.825 98.2314 145.627 98.1471C145.43 98.0641 145.293 97.962 145.217 97.8395C145.141 97.7179 145.103 97.5812 145.103 97.4287V70.9198C145.103 70.2053 145.312 69.6702 145.73 69.3131C146.148 68.9556 146.66 68.778 147.268 68.778H150.482C151.06 68.778 151.546 68.8269 151.941 68.926C152.336 69.025 152.689 69.1888 153.001 69.4154C153.312 69.6435 153.605 69.9591 153.879 70.3616C154.152 70.7644 154.433 71.2618 154.722 71.8544L160.466 82.6356C160.8 83.2893 161.131 83.9315 161.457 84.5618C161.784 85.1927 162.099 85.8233 162.403 86.4536C162.707 87.0845 163.003 87.7032 163.292 88.3112C163.581 88.9187 163.862 89.5273 164.136 90.1342H164.158C164.113 89.0714 164.079 87.9624 164.056 86.8062C164.033 85.6524 164.022 84.5502 164.022 83.5017V69.6657C164.022 69.5142 164.067 69.3774 164.158 69.2561C164.25 69.1336 164.401 69.028 164.614 68.9358C164.827 68.8444 165.108 68.7806 165.458 68.7415C165.807 68.7044 166.255 68.6845 166.803 68.6845C167.319 68.6845 167.752 68.7032 168.102 68.7415C168.451 68.78 168.72 68.8444 168.911 68.9358C169.101 69.0262 169.233 69.1336 169.31 69.2561C169.385 69.3774 169.424 69.5142 169.424 69.6657V96.1756Z" fill="#003594"/>
<path d="M194.291 86.7386C194.291 87.4377 194.136 87.9544 193.824 88.2884C193.512 88.623 193.083 88.7905 192.536 88.7905H180.159C180.159 89.6572 180.261 90.4424 180.467 91.1495C180.671 91.856 180.998 92.4572 181.447 92.9502C181.895 93.4438 182.473 93.8199 183.18 94.0779C183.886 94.3366 184.734 94.4659 185.72 94.4659C186.723 94.4659 187.605 94.3935 188.365 94.2493C189.125 94.1046 189.782 93.9462 190.337 93.7703C190.892 93.5953 191.351 93.4363 191.717 93.2916C192.081 93.1469 192.377 93.0745 192.605 93.0745C192.742 93.0745 192.857 93.1012 192.948 93.1549C193.038 93.2082 193.115 93.3035 193.175 93.4396C193.235 93.5763 193.277 93.7703 193.301 94.0216C193.323 94.271 193.336 94.5881 193.336 94.9674C193.336 95.3014 193.328 95.5862 193.313 95.8223C193.298 96.0569 193.275 96.2586 193.245 96.4256C193.214 96.5938 193.168 96.7341 193.108 96.8474C193.048 96.9619 192.967 97.0725 192.869 97.1778C192.77 97.2849 192.501 97.4281 192.06 97.6108C191.619 97.7944 191.057 97.9727 190.372 98.1465C189.689 98.3209 188.906 98.4731 188.025 98.6024C187.144 98.7323 186.201 98.7961 185.198 98.7961C183.39 98.7961 181.806 98.5689 180.446 98.113C179.086 97.6565 177.951 96.9654 177.039 96.0382C176.127 95.1122 175.447 93.9412 174.999 92.5281C174.551 91.1154 174.326 89.4582 174.326 87.5596C174.326 85.7503 174.563 84.1219 175.033 82.6703C175.504 81.219 176.188 79.9883 177.085 78.9778C177.982 77.9687 179.071 77.1966 180.355 76.6639C181.64 76.1315 183.086 75.8666 184.698 75.8666C186.4 75.8666 187.854 76.1173 189.063 76.6183C190.27 77.1201 191.261 77.8154 192.037 78.7037C192.813 79.5933 193.382 80.6447 193.747 81.8611C194.112 83.0766 194.294 84.398 194.294 85.8268L194.291 86.7386ZM188.73 85.0969C188.776 83.4866 188.452 82.2221 187.761 81.3017C187.07 80.3831 186.002 79.9228 184.559 79.9228C183.829 79.9228 183.194 80.0595 182.656 80.3336C182.116 80.6071 181.668 80.9757 181.31 81.4385C180.953 81.9018 180.681 82.4487 180.491 83.0802C180.301 83.7114 180.191 84.3832 180.16 85.0969H188.73Z" fill="#003594"/>
<path d="M210.725 95.4922C210.725 96.1613 210.683 96.673 210.6 97.0304C210.516 97.3875 210.406 97.6378 210.269 97.782C210.133 97.9267 209.931 98.0549 209.665 98.17C209.398 98.2833 209.086 98.3823 208.73 98.4663C208.372 98.5493 207.985 98.6149 207.567 98.6606C207.15 98.7056 206.727 98.7291 206.302 98.7291C205.163 98.7291 204.175 98.5843 203.339 98.2957C202.503 98.0074 201.812 97.5625 201.264 96.9625C200.717 96.3612 200.315 95.6058 200.057 94.6946C199.798 93.7828 199.669 92.704 199.669 91.458V81.0407H197.23C196.941 81.0407 196.72 80.8631 196.569 80.5062C196.417 80.1482 196.341 79.5517 196.341 78.7159C196.341 78.276 196.36 77.9026 196.399 77.5989C196.436 77.2951 196.494 77.0558 196.571 76.8811C196.646 76.7055 196.742 76.5812 196.855 76.505C196.969 76.429 197.103 76.3908 197.254 76.3908H199.67V71.855C199.67 71.7034 199.711 71.5667 199.796 71.4442C199.879 71.3229 200.031 71.2197 200.252 71.1369C200.472 71.0539 200.768 70.9922 201.141 70.9548C201.513 70.9171 201.973 70.8976 202.52 70.8976C203.082 70.8976 203.55 70.9165 203.922 70.9548C204.294 70.9922 204.587 71.0539 204.8 71.1369C205.012 71.2203 205.165 71.3229 205.256 71.4442C205.346 71.5667 205.392 71.7034 205.392 71.855V76.3908H209.815C209.966 76.3908 210.1 76.429 210.213 76.505C210.326 76.5812 210.421 76.7067 210.498 76.8811C210.574 77.0552 210.63 77.2951 210.669 77.5989C210.706 77.9026 210.726 78.276 210.726 78.7159C210.726 79.5517 210.65 80.1482 210.499 80.5062C210.346 80.8625 210.127 81.0407 209.839 81.0407H205.393V90.5916C205.393 91.7006 205.568 92.5332 205.918 93.0881C206.266 93.6431 206.89 93.9201 207.786 93.9201C208.09 93.9201 208.364 93.8934 208.607 93.8398C208.849 93.7861 209.066 93.7259 209.256 93.6579C209.446 93.5897 209.605 93.528 209.735 93.4761C209.865 93.4227 209.983 93.3957 210.088 93.3957C210.179 93.3957 210.267 93.4227 210.35 93.4761C210.434 93.5298 210.499 93.6351 210.545 93.7953C210.59 93.9554 210.631 94.1708 210.671 94.446C210.706 94.7162 210.725 95.0671 210.725 95.4922Z" fill="#003594"/>
<path d="M245.987 77.1192C245.987 77.2871 245.964 77.4918 245.918 77.7344C245.873 77.9785 245.788 78.3276 245.668 78.7829L240.243 97.1778C240.166 97.4358 240.067 97.6447 239.946 97.8045C239.824 97.9635 239.638 98.0896 239.388 98.1806C239.138 98.272 238.78 98.3328 238.317 98.3631C237.853 98.3933 237.249 98.4087 236.504 98.4087C235.759 98.4087 235.151 98.3889 234.681 98.3506C234.21 98.3123 233.841 98.248 233.576 98.1569C233.309 98.0656 233.116 97.9398 232.994 97.7808C232.873 97.6218 232.782 97.4201 232.722 97.176L229.302 84.8216L229.257 84.6175L229.211 84.8216L226.065 97.176C226.005 97.4356 225.917 97.6435 225.803 97.8036C225.69 97.9632 225.495 98.0884 225.222 98.1792C224.948 98.2702 224.576 98.3319 224.105 98.3613C223.634 98.3915 223.025 98.407 222.281 98.407C221.521 98.407 220.91 98.3883 220.447 98.3494C219.983 98.3123 219.618 98.2462 219.353 98.1551C219.086 98.0647 218.891 97.9392 218.771 97.7796C218.649 97.6206 218.558 97.4184 218.498 97.1757L213.118 78.782C212.981 78.3419 212.893 77.996 212.856 77.7454C212.818 77.4956 212.799 77.2859 212.799 77.1181C212.799 76.9659 212.839 76.833 212.924 76.7197C213.008 76.6058 213.159 76.515 213.38 76.4468C213.601 76.3777 213.897 76.3288 214.27 76.2973C214.641 76.2671 215.11 76.252 215.672 76.252C216.278 76.252 216.773 76.2671 217.154 76.2973C217.533 76.3288 217.83 76.3807 218.043 76.4563C218.256 76.5334 218.404 76.6355 218.487 76.7648C218.57 76.8941 218.635 77.0495 218.681 77.232L222.715 92.1609L222.761 92.4341L222.806 92.1609L226.591 77.232C226.636 77.0495 226.708 76.8929 226.807 76.7648C226.906 76.6355 227.054 76.5334 227.251 76.4563C227.449 76.3807 227.726 76.327 228.083 76.2973C228.44 76.2677 228.901 76.252 229.462 76.252C230.024 76.252 230.48 76.2712 230.83 76.3101C231.179 76.3475 231.457 76.4011 231.661 76.4691C231.867 76.5367 232.011 76.6281 232.095 76.742C232.178 76.8564 232.243 76.9896 232.289 77.1412L236.345 92.1844L236.414 92.4341L236.46 92.1609L240.335 77.232C240.365 77.0495 240.426 76.8929 240.517 76.7648C240.608 76.6355 240.76 76.5334 240.973 76.4563C241.185 76.3807 241.475 76.327 241.839 76.2973C242.204 76.2671 242.667 76.252 243.229 76.252C243.79 76.252 244.251 76.2671 244.608 76.2973C244.965 76.3288 245.246 76.3777 245.451 76.4468C245.655 76.5145 245.796 76.6052 245.872 76.7197C245.949 76.8342 245.987 76.968 245.987 77.1192Z" fill="#003594"/>
<path d="M269.828 87.126C269.828 88.8582 269.601 90.4391 269.145 91.867C268.689 93.2954 267.996 94.5258 267.07 95.5595C266.143 96.592 264.98 97.3904 263.583 97.9522C262.185 98.5128 260.552 98.7949 258.682 98.7949C256.873 98.7949 255.3 98.5454 253.964 98.0433C252.626 97.542 251.517 96.8132 250.636 95.8546C249.754 94.8974 249.101 93.7202 248.676 92.3223C248.251 90.9243 248.038 89.3289 248.038 87.5368C248.038 85.804 248.27 84.2204 248.733 82.7839C249.197 81.3474 249.892 80.1165 250.819 79.092C251.746 78.0672 252.904 77.2723 254.295 76.7099C255.685 76.1481 257.316 75.8666 259.185 75.8666C261.007 75.8666 262.588 76.114 263.925 76.6073C265.262 77.1014 266.368 77.8281 267.241 78.7835C268.115 79.741 268.765 80.9194 269.19 82.317C269.615 83.7161 269.828 85.3178 269.828 87.126ZM263.925 87.3538C263.925 86.3509 263.845 85.4273 263.686 84.5846C263.527 83.7416 263.256 83.0078 262.876 82.3861C262.496 81.7621 261.99 81.2765 261.361 80.9262C260.73 80.5768 259.936 80.4018 258.978 80.4018C258.128 80.4018 257.383 80.5581 256.745 80.8687C256.107 81.1804 255.583 81.6366 255.172 82.2363C254.761 82.8373 254.453 83.5571 254.249 84.4022C254.044 85.2449 253.941 86.2062 253.941 87.2849C253.941 88.2884 254.024 89.2114 254.191 90.055C254.359 90.8977 254.628 91.6318 255 92.2538C255.372 92.8772 255.878 93.3589 256.516 93.7006C257.154 94.0438 257.945 94.2135 258.886 94.2135C259.753 94.2135 260.505 94.058 261.143 93.7463C261.781 93.4346 262.305 92.9828 262.716 92.3896C263.127 91.7976 263.43 91.0795 263.628 90.2368C263.826 89.3938 263.925 88.4331 263.925 87.3538Z" fill="#003594"/>
<path d="M287.426 79.0582C287.426 79.6048 287.411 80.0527 287.38 80.4018C287.349 80.7518 287.303 81.0253 287.243 81.2225C287.183 81.4198 287.103 81.5565 287.004 81.6322C286.905 81.709 286.779 81.7467 286.628 81.7467C286.506 81.7467 286.37 81.72 286.218 81.6663C286.065 81.6129 285.895 81.5565 285.705 81.4948C285.515 81.4349 285.306 81.3774 285.078 81.3234C284.85 81.2709 284.599 81.2442 284.326 81.2442C284.007 81.2442 283.688 81.308 283.368 81.4379C283.049 81.5672 282.718 81.7683 282.377 82.0418C282.036 82.3156 281.678 82.6801 281.306 83.136C280.933 83.5931 280.534 84.1542 280.109 84.8228V97.4958C280.109 97.6485 280.063 97.7808 279.972 97.8941C279.881 98.0086 279.724 98.1032 279.506 98.1792C279.285 98.256 278.993 98.3117 278.628 98.3506C278.263 98.3883 277.799 98.4087 277.238 98.4087C276.676 98.4087 276.212 98.3889 275.848 98.3506C275.484 98.3123 275.191 98.256 274.97 98.1792C274.75 98.1032 274.595 98.0086 274.504 97.8941C274.413 97.7808 274.367 97.6479 274.367 97.4958V77.164C274.367 77.0113 274.404 76.8793 274.481 76.7648C274.557 76.6512 274.693 76.5566 274.892 76.4797C275.089 76.4038 275.344 76.3475 275.655 76.3095C275.967 76.2712 276.357 76.2514 276.83 76.2514C277.316 76.2514 277.719 76.2706 278.038 76.3095C278.357 76.3463 278.604 76.4038 278.779 76.4797C278.953 76.5566 279.078 76.6512 279.155 76.7648C279.23 76.8793 279.268 77.0125 279.268 77.164V79.6929C279.8 78.9333 280.3 78.3066 280.773 77.8127C281.244 77.3192 281.692 76.9276 282.117 76.6381C282.543 76.3498 282.968 76.1487 283.394 76.0336C283.819 75.92 284.244 75.8619 284.67 75.8619C284.868 75.8619 285.08 75.8741 285.308 75.8975C285.535 75.9206 285.771 75.9577 286.014 76.0108C286.257 76.0648 286.47 76.1247 286.652 76.1926C286.834 76.2614 286.967 76.3338 287.051 76.4097C287.134 76.486 287.195 76.5687 287.233 76.6598C287.27 76.7509 287.305 76.8769 287.335 77.0359C287.366 77.1949 287.389 77.4342 287.404 77.754C287.418 78.077 287.426 78.5106 287.426 79.0582Z" fill="#003594"/>
<path d="M309.854 97.5198C309.854 97.6725 309.812 97.8045 309.729 97.9181C309.646 98.0326 309.492 98.1237 309.272 98.1916C309.05 98.2598 308.753 98.3129 308.374 98.3506C307.994 98.3883 307.499 98.4087 306.891 98.4087C306.268 98.4087 305.764 98.3933 305.375 98.363C304.986 98.3319 304.669 98.2821 304.417 98.2144C304.168 98.1459 303.972 98.0507 303.836 97.9294C303.699 97.8075 303.578 97.6485 303.471 97.4504L296.699 86.7368V97.4958C296.699 97.6485 296.655 97.7808 296.564 97.8941C296.473 98.0086 296.316 98.1032 296.097 98.1791C295.876 98.256 295.584 98.3117 295.22 98.3506C294.854 98.3883 294.391 98.4087 293.829 98.4087C293.268 98.4087 292.804 98.3889 292.44 98.3506C292.075 98.3123 291.783 98.256 291.562 98.1791C291.341 98.1032 291.186 98.0086 291.095 97.8941C291.004 97.7808 290.959 97.6473 290.959 97.4958V67.5227C290.959 67.37 291.004 67.2332 291.095 67.111C291.186 66.9897 291.343 66.8868 291.562 66.8034C291.783 66.7204 292.075 66.6554 292.44 66.6097C292.805 66.5641 293.268 66.5412 293.829 66.5412C294.391 66.5412 294.856 66.5641 295.22 66.6097C295.584 66.6554 295.876 66.7198 296.097 66.8034C296.317 66.8868 296.473 66.9897 296.564 67.111C296.655 67.2332 296.699 67.37 296.699 67.5227V85.3692L302.717 77.2776C302.839 77.0952 302.975 76.935 303.13 76.7989C303.281 76.6622 303.483 76.5557 303.735 76.4792C303.984 76.4035 304.295 76.3466 304.669 76.3077C305.04 76.2706 305.514 76.2502 306.093 76.2502C306.653 76.2502 307.131 76.2694 307.517 76.3077C307.905 76.3454 308.216 76.4035 308.454 76.4792C308.688 76.5557 308.851 76.6503 308.943 76.7642C309.032 76.8775 309.08 77.019 309.08 77.1857C309.08 77.4126 309.02 77.6564 308.908 77.9147C308.795 78.1728 308.623 78.4469 308.394 78.7346L302.447 85.4816L309.329 96.1266C309.513 96.4303 309.646 96.6922 309.729 96.9129C309.812 97.1357 309.854 97.338 309.854 97.5198Z" fill="#003594"/>
<path d="M327.292 91.7531C327.292 92.9075 327.075 93.9258 326.642 94.8073C326.209 95.6888 325.595 96.4256 324.806 97.0176C324.014 97.6109 323.083 98.0549 322.003 98.3518C320.923 98.6487 319.755 98.7961 318.491 98.7961C317.732 98.7961 317.008 98.7386 316.317 98.6247C315.623 98.5114 315.006 98.3666 314.457 98.1916C313.911 98.0166 313.455 97.8389 313.09 97.6565C312.725 97.4741 312.461 97.3027 312.292 97.1437C312.126 96.9847 311.998 96.7329 311.906 96.3927C311.814 96.0495 311.77 95.5459 311.77 94.8767C311.77 94.4362 311.785 94.0821 311.814 93.8169C311.844 93.5514 311.892 93.3376 311.951 93.1786C312.01 93.0196 312.087 92.9126 312.179 92.8592C312.268 92.8067 312.384 92.7794 312.52 92.7794C312.689 92.7794 312.936 92.874 313.262 93.0641C313.588 93.2539 313.995 93.4625 314.481 93.6917C314.967 93.9195 315.534 94.1316 316.181 94.3292C316.824 94.5276 317.56 94.6261 318.378 94.6261C318.894 94.6261 319.354 94.5733 319.758 94.4671C320.161 94.3612 320.508 94.2096 320.808 94.0106C321.104 93.8131 321.327 93.5627 321.478 93.259C321.632 92.9553 321.706 92.6062 321.706 92.2105C321.706 91.7543 321.567 91.3639 321.285 91.0362C321.003 90.7096 320.633 90.4249 320.167 90.1814C319.704 89.9387 319.182 89.7106 318.595 89.4977C318.011 89.285 317.411 89.0498 316.795 88.7914C316.181 88.5334 315.578 88.2365 314.994 87.9022C314.41 87.5682 313.885 87.1574 313.422 86.6713C312.956 86.1845 312.586 85.5993 312.304 84.9162C312.022 84.2328 311.883 83.4112 311.883 82.4556C311.883 81.483 312.072 80.5905 312.452 79.7769C312.832 78.9642 313.381 78.2689 314.095 77.6911C314.807 77.1145 315.679 76.666 316.703 76.3469C317.729 76.028 318.88 75.8684 320.158 75.8684C320.796 75.8684 321.416 75.9138 322.015 76.0052C322.617 76.0962 323.16 76.2095 323.643 76.3469C324.13 76.4836 324.542 76.6319 324.874 76.7909C325.209 76.9511 325.45 77.0878 325.592 77.2017C325.737 77.3156 325.841 77.4298 325.9 77.5449C325.963 77.6594 326.007 77.7943 326.037 77.9545C326.067 78.1147 326.096 78.3119 326.117 78.5477C326.141 78.7835 326.153 79.076 326.153 79.4248C326.153 79.8356 326.141 80.1699 326.117 80.4282C326.096 80.6869 326.058 80.8915 326.004 81.0431C325.951 81.1956 325.877 81.2976 325.788 81.3513C325.696 81.405 325.589 81.4311 325.467 81.4311C325.331 81.4311 325.117 81.3513 324.83 81.1917C324.542 81.0333 324.18 80.8613 323.747 80.6795C323.314 80.497 322.813 80.3268 322.243 80.1672C321.674 80.0076 321.024 79.9272 320.295 79.9272C319.778 79.9272 319.328 79.9812 318.951 80.0874C318.568 80.1939 318.257 80.3455 318.014 80.5427C317.77 80.7409 317.589 80.9722 317.468 81.2386C317.346 81.5046 317.284 81.7894 317.284 82.0931C317.284 82.5644 317.429 82.9598 317.72 83.2784C318.008 83.5981 318.387 83.879 318.859 84.1219C319.328 84.3645 319.864 84.5923 320.464 84.805C321.066 85.0177 321.674 85.249 322.288 85.5009C322.905 85.7503 323.51 86.0439 324.112 86.3776C324.711 86.7128 325.248 87.123 325.717 87.6086C326.188 88.0953 326.568 88.6758 326.858 89.3529C327.146 90.0248 327.292 90.8265 327.292 91.7531Z" fill="#003594"/>
</g>
</g>
<defs>
<clipPath id="clip0_117_4">
<rect width="350" height="118.644" fill="white"/>
</clipPath>
</defs>
</svg>
